<?xml version="1.0" standalone="no"?>
<!DOCTYPE svg PUBLIC "-//W3C//DTD SVG 20010904//EN"
 "http://www.w3.org/TR/2001/REC-SVG-20010904/DTD/svg10.dtd">
<svg version="1.0" xmlns="http://www.w3.org/2000/svg"
 width="260.000000pt" height="260.000000pt" viewBox="0 0 260.000000 260.000000"
 preserveAspectRatio="xMidYMid meet">
<metadata>
Created by potrace 1.11, written by Peter Selinger 2001-2013
</metadata>
<g transform="translate(0.000000,260.000000) scale(0.100000,-0.100000)"
fill="#000000" stroke="none">
<path d="M1260 2320 c-130 -19 -267 -82 -357 -163 -41 -38 -81 -48 -173 -47
-85 1 -197 -27 -285 -71 -108 -54 -247 -159 -280 -212 -15 -23 -42 -67 -61
-97 -48 -76 -55 -107 -61 -247 -5 -111 -3 -127 18 -177 12 -31 30 -58 40 -61
12 -4 17 -16 17 -34 -1 -15 7 -39 16 -53 17 -25 126 -115 126 -103 0 3 24 -23
53 -57 29 -34 73 -74 97 -89 49 -30 76 -37 64 -17 -5 9 -3 9 9 -1 9 -7 15 -17
12 -21 -7 -11 62 -70 83 -71 25 -1 90 -6 257 -18 141 -11 153 -10 196 8 25 11
74 25 108 30 63 10 64 10 85 -17 33 -44 129 -142 133 -138 3 2 -14 61 -36 131
-23 70 -41 140 -41 155 0 24 3 26 29 22 50 -7 105 -63 131 -134 20 -54 24 -60
30 -38 4 17 12 -7 29 -85 37 -179 49 -194 125 -162 34 15 43 54 17 75 -9 8
-10 11 -3 7 20 -10 14 12 -14 44 -31 37 -43 106 -30 161 6 24 6 24 -3 3 -18
-39 -20 -25 -4 25 8 26 16 64 17 85 1 20 8 43 14 49 7 7 12 17 12 23 0 5 -5 3
-10 -5 -8 -12 -10 -12 -10 -1 0 11 -3 11 -15 1 -8 -7 -15 -8 -15 -3 0 16 49
86 73 105 26 21 44 24 28 4 -6 -8 -11 -18 -10 -22 4 -26 -1 -36 -15 -25 -10 9
-16 8 -26 -4 -10 -12 -8 -20 9 -41 l22 -27 -28 -29 c-14 -15 -24 -30 -21 -33
3 -3 17 7 30 23 22 27 58 52 72 52 3 0 6 -7 6 -15 0 -8 -6 -12 -14 -9 -21 8
-27 -9 -11 -39 11 -22 11 -28 -4 -41 -10 -9 -21 -13 -25 -9 -4 4 -5 1 -1 -7 3
-8 -5 -26 -18 -40 -13 -14 -22 -31 -20 -37 2 -6 -1 -14 -6 -18 -6 -3 -11 -16
-11 -28 0 -15 13 1 39 46 22 37 46 73 53 80 14 14 48 29 48 22 0 -11 -24 -55
-30 -55 -4 0 -15 -12 -25 -27 l-17 -28 26 28 c27 27 54 38 40 15 -4 -7 -3 -8
4 -4 7 4 12 15 12 24 1 15 2 15 15 -2 8 -11 15 -25 14 -30 0 -6 -3 -5 -6 2 -2
6 -9 12 -14 12 -6 0 -7 -5 -3 -12 4 -6 3 -8 -4 -4 -13 8 -42 -20 -42 -40 0 -8
-9 -14 -20 -14 -11 0 -20 -5 -20 -11 0 -6 -7 -17 -15 -25 -8 -9 -15 -23 -15
-32 0 -13 3 -12 15 5 18 26 98 84 140 102 22 9 27 9 18 1 -6 -7 -10 -18 -9
-24 2 -6 1 -8 -1 -3 -8 14 -23 7 -23 -10 0 -16 -2 -16 -11 -3 -9 12 -10 10 -5
-9 4 -18 2 -21 -7 -12 -8 8 -14 6 -24 -11 -7 -13 -12 -17 -13 -10 0 17 -47
-14 -62 -42 -10 -19 -10 -20 6 -7 14 12 16 12 12 0 -2 -8 -7 -27 -10 -44 -6
-27 -3 -24 24 18 34 54 49 63 24 14 -10 -17 -19 -45 -21 -61 l-3 -30 36 35 36
34 -28 -41 c-16 -23 -33 -39 -38 -36 -5 3 -6 0 -2 -7 6 -9 12 -9 24 1 15 12
16 11 3 -5 -18 -23 -7 -34 16 -16 14 11 14 9 -2 -9 -18 -22 -20 -22 -32 -6 -7
10 -13 15 -13 12 0 -8 32 -72 44 -87 5 -7 11 -19 12 -26 4 -24 78 -106 92
-100 7 2 11 1 8 -4 -8 -12 5 -21 99 -71 70 -37 89 -43 155 -46 89 -3 145 14
241 75 37 22 72 41 78 41 20 0 81 51 97 81 24 48 18 183 -12 275 -15 43 -37
95 -49 114 -31 49 -121 146 -159 171 l-31 21 24 -21 23 -21 -43 -19 c-51 -23
-35 -28 18 -6 44 18 44 18 37 0 -4 -8 -14 -15 -23 -15 -17 -1 -61 -30 -45 -30
5 -1 -2 -10 -15 -21 -13 -11 -21 -22 -17 -26 3 -4 17 4 30 16 14 13 29 20 35
16 6 -3 25 0 41 9 18 8 32 11 36 5 5 -9 -53 -36 -68 -31 -5 1 -8 -11 -8 -28 0
-34 -15 -40 -25 -10 -7 22 -20 26 -30 10 -3 -5 -2 -10 3 -10 6 0 13 -11 16
-25 8 -30 27 -32 43 -6 10 16 64 36 87 32 5 -1 6 5 3 14 -8 19 7 20 22 1 14
-16 8 -21 -36 -30 -30 -7 -88 -54 -79 -64 3 -2 12 3 21 12 17 17 37 22 33 9
-1 -5 2 -19 6 -32 5 -14 4 -27 -3 -34 -18 -18 -12 -28 9 -15 16 10 22 10 32
-1 8 -9 9 -12 1 -7 -22 12 -22 -10 0 -29 14 -12 17 -20 9 -23 -7 -2 -9 -9 -5
-15 4 -7 0 -8 -12 -3 -15 5 -16 4 -5 -9 10 -12 10 -16 -1 -19 -40 -13 -42 -14
-20 -15 13 -1 30 7 37 16 7 10 16 14 20 10 12 -12 -11 -42 -30 -39 -9 2 -24
-2 -34 -7 -15 -9 -15 -10 3 -11 13 0 21 -7 22 -20 1 -12 -4 -20 -13 -20 -8 0
-12 4 -9 10 3 5 1 10 -4 10 -15 0 -14 -40 2 -41 38 -3 -60 -20 -123 -22 -73
-2 -100 7 -100 33 0 16 -30 -15 -31 -32 0 -7 -6 2 -13 21 l-12 35 -22 -22
c-13 -13 -22 -35 -22 -51 0 -17 -4 -32 -8 -35 -13 -8 6 102 23 135 8 15 31 41
50 56 35 28 47 63 21 63 -7 0 -20 8 -27 17 -8 9 -9 14 -2 10 8 -5 8 -1 0 18
-7 14 -16 25 -22 25 -12 1 -81 101 -77 113 1 5 -1 6 -6 3 -4 -2 -18 12 -32 32
-13 20 -30 42 -37 48 -8 7 -16 22 -18 35 -3 13 -9 25 -15 27 -6 2 -8 7 -5 12
3 4 0 41 -6 82 -11 68 -10 79 10 138 30 87 42 104 93 128 66 31 138 47 138 32
0 -6 7 -10 15 -10 8 0 15 5 15 12 0 6 2 9 5 6 3 -3 26 -1 52 3 31 6 50 5 60
-2 8 -7 13 -8 13 -1 0 5 7 12 15 15 30 12 22 -11 -20 -59 -42 -46 -58 -73 -35
-59 6 3 13 -1 16 -9 3 -8 21 -21 40 -28 19 -6 34 -18 34 -26 0 -7 -5 -10 -11
-6 -6 4 -27 10 -45 14 -25 6 -34 4 -34 -5 0 -8 24 -17 61 -24 68 -12 90 -6 62
14 -17 13 -16 14 5 8 21 -5 22 -3 13 20 -13 34 -15 88 -6 158 5 35 4 59 -3 63
-5 3 -47 -7 -93 -23 -46 -16 -87 -26 -91 -23 -6 6 4 104 18 179 4 23 1 40 -14
60 -10 15 -22 46 -26 67 -4 22 -14 49 -22 60 -8 11 -14 27 -14 36 0 38 -24 94
-54 128 -18 20 -41 51 -51 69 -19 32 -140 139 -185 163 -15 9 -54 14 -98 13
l-73 -1 -24 38 c-20 32 -36 42 -112 70 -95 35 -179 44 -273 30z m231 -123 c8
-7 19 -21 23 -32 6 -16 1 -14 -23 9 -17 17 -31 31 -31 33 0 7 16 2 31 -10z
m36 -19 c-3 -8 -6 -5 -6 6 -1 11 2 17 5 13 3 -3 4 -12 1 -19z m136 -24 c12
-16 14 -24 5 -22 -7 2 -12 -3 -10 -10 1 -8 -2 -11 -9 -7 -7 5 -7 11 -1 17 12
12 -17 50 -31 41 -6 -3 -7 -1 -3 5 9 15 27 6 49 -24z m-653 -4 c12 -8 11 -10
-5 -10 -12 0 -26 -5 -32 -11 -17 -17 -37 -1 -22 17 13 16 38 18 59 4z m601
-29 c1 8 0 19 -1 24 -2 13 7 4 11 -10 15 -60 113 -195 141 -195 5 0 7 -7 4
-16 -3 -8 -2 -12 4 -9 6 3 10 -3 10 -13 0 -16 5 -19 22 -14 13 3 19 1 15 -5
-4 -6 4 -13 18 -15 13 -3 26 0 28 6 3 7 11 5 22 -6 17 -15 17 -23 6 -72 -16
-70 -30 -81 -24 -18 l4 47 -29 -45 c-20 -30 -26 -47 -18 -52 7 -5 5 -8 -5 -8
-17 0 -36 -59 -22 -69 5 -3 9 -15 11 -26 1 -11 6 -41 11 -67 7 -43 6 -48 -10
-48 -10 0 -21 5 -24 10 -4 7 -11 7 -18 2 -7 -5 -25 -12 -41 -16 -24 -6 -27 -4
-22 9 3 9 2 13 -3 10 -11 -6 -26 33 -17 42 3 4 6 1 6 -5 0 -7 4 -12 9 -12 5 0
6 12 2 28 -4 15 -10 26 -14 25 -4 -2 -11 -3 -17 -3 -5 0 -10 -5 -10 -11 0 -5
3 -8 8 -6 4 3 8 -18 9 -47 l1 -51 -12 40 c-7 22 -18 50 -24 62 -10 19 -9 22
12 30 l24 8 -34 50 c-18 28 -34 55 -34 61 0 6 -7 17 -16 25 -26 21 -6 -38 22
-66 13 -13 24 -34 24 -47 -1 -19 -4 -17 -21 15 -11 22 -23 37 -26 34 -2 -3 0
-15 7 -26 6 -12 7 -21 1 -21 -14 0 -27 33 -30 75 -1 15 -3 17 -10 7 -9 -15
-41 -18 -83 -7 -18 5 -28 3 -28 -4 0 -6 -5 -11 -11 -11 -5 0 -7 5 -3 12 5 7 3
8 -7 2 -22 -14 -62 -13 -84 2 -25 18 -36 18 -29 0 3 -8 1 -17 -5 -21 -6 -3
-11 0 -11 8 0 17 -34 49 -43 40 -4 -3 -7 8 -7 25 0 36 29 59 48 40 9 -9 12 -8
12 5 0 19 15 23 25 6 5 -7 14 -4 26 7 18 16 19 16 13 1 -3 -10 -1 -17 5 -17 6
0 11 11 11 25 0 26 14 34 24 13 3 -7 4 1 1 17 -5 29 -5 29 11 10 16 -19 16
-19 10 7 -7 30 8 45 29 28 9 -7 15 -8 20 0 10 16 35 12 29 -5 -7 -18 12 -20
20 -2 3 6 3 2 1 -10 -3 -12 -1 -24 5 -28 5 -3 10 -1 10 4 0 6 5 11 10 11 6 0
10 -7 10 -15 0 -8 7 -15 16 -15 8 0 12 -5 9 -10 -4 -6 -10 -8 -15 -5 -4 2 -10
-6 -12 -20 -3 -14 -1 -25 3 -25 5 0 9 7 9 15 0 8 5 15 10 15 6 0 10 -8 10 -17
0 -15 2 -16 10 -3 13 19 13 33 0 25 -11 -7 -2 55 11 69 4 5 3 18 -2 28 -6 11
-8 22 -5 26 3 3 6 0 6 -6 0 -7 5 -12 10 -12 6 0 10 7 10 16 0 10 -7 14 -22 12
-17 -2 -30 7 -50 37 -15 22 -25 41 -23 44 6 6 35 -20 35 -31 0 -5 7 -16 15
-24 19 -19 19 -7 0 26 -9 16 -12 40 -8 68 5 35 3 42 -11 42 -11 0 -14 5 -10
12 5 8 13 4 26 -11 11 -15 18 -18 19 -10z m225 -12 c3 -6 -10 -27 -30 -47 -28
-29 -38 -34 -48 -24 -10 10 -6 19 22 47 38 37 45 40 56 24z m-1236 -69 c-12
-7 -8 -12 18 -21 30 -10 44 -29 22 -29 -5 0 -10 5 -10 11 0 7 -11 9 -30 6 -16
-4 -32 -2 -35 3 -3 6 1 10 9 10 9 0 15 3 15 8 -3 15 1 22 14 22 8 0 7 -3 -3
-10z m224 -14 c-5 -12 -9 -14 -14 -6 -4 6 -6 -11 -4 -39 1 -31 11 -65 24 -86
13 -21 17 -35 10 -35 -7 0 -10 -7 -6 -16 5 -12 3 -14 -7 -8 -7 5 -6 2 3 -6 16
-15 23 -63 8 -54 -4 3 -8 -1 -8 -8 0 -7 -17 4 -36 25 -20 21 -38 36 -41 33 -7
-7 -109 75 -105 86 1 5 -2 7 -7 4 -5 -4 -12 -2 -15 3 -7 11 -135 36 -143 27
-4 -3 -15 1 -25 10 -14 14 -20 14 -33 4 -9 -7 -18 -10 -22 -6 -11 10 6 19 37
19 16 0 27 3 25 7 -11 17 89 13 125 -5 16 -8 40 -15 53 -15 16 0 41 -17 73
-50 27 -27 52 -50 56 -50 4 0 -5 22 -21 48 -16 27 -32 58 -35 70 -4 11 -13 26
-21 32 -8 7 -15 17 -15 23 0 5 11 -2 25 -17 14 -15 25 -35 25 -45 0 -24 46
-56 56 -39 4 6 3 8 -3 5 -6 -4 -14 0 -17 9 -9 24 -7 46 4 39 6 -3 10 3 10 14
0 11 10 27 22 35 25 18 31 16 22 -8z m-139 -35 c-6 -5 -25 10 -25 20 0 5 6 4
14 -3 8 -7 12 -15 11 -17z m142 -13 c-3 -8 -6 -5 -6 6 -1 11 2 17 5 13 3 -3 4
-12 1 -19z m660 -34 c-3 -3 -12 -4 -19 -1 -8 3 -5 6 6 6 11 1 17 -2 13 -5z
m-606 -58 c5 3 16 -2 25 -10 8 -9 11 -16 5 -16 -6 0 -11 -12 -11 -26 0 -14 4
-23 10 -19 5 3 6 13 3 22 -5 12 -2 12 15 -3 26 -22 27 -25 7 -18 -10 4 -15 0
-15 -11 0 -17 -1 -17 -18 -2 -10 10 -22 14 -27 10 -4 -5 -5 -2 -1 5 4 7 1 25
-7 42 -8 16 -12 32 -9 35 4 3 8 1 10 -4 2 -6 8 -9 13 -5z m719 -6 c0 -5 -5
-10 -11 -10 -5 0 -7 5 -4 10 3 6 8 10 11 10 2 0 4 -4 4 -10z m-580 -30 c0 -5
5 -9 12 -7 6 1 14 -6 16 -15 5 -25 -11 -22 -38 7 -19 21 -21 25 -7 25 9 0 17
-4 17 -10z m1016 -45 c9 -14 18 -43 20 -64 1 -21 10 -53 18 -70 9 -17 13 -31
9 -31 -5 0 -2 -4 6 -9 8 -5 9 -11 3 -15 -5 -3 -32 27 -58 67 -27 39 -59 84
-73 99 -26 30 -20 36 51 47 4 0 15 -10 24 -24z m-1151 -35 c3 -5 1 -10 -4 -10
-6 0 -11 5 -11 10 0 6 2 10 4 10 3 0 8 -4 11 -10z m308 -27 c-2 -7 5 -13 16
-13 10 0 24 -7 31 -15 7 -8 20 -15 30 -15 19 0 30 -19 30 -52 0 -17 -4 -15
-27 13 -45 52 -119 75 -149 44 -9 -8 -21 -15 -29 -15 -19 0 -61 37 -53 46 5 4
17 -1 28 -11 20 -18 22 -18 49 -2 16 9 37 17 48 18 13 1 12 3 -7 9 -24 9 -24
9 5 7 18 -1 29 -7 28 -14z m-208 -62 c-3 -5 -1 -12 4 -15 5 -4 12 -2 15 3 7
11 66 -16 66 -30 0 -6 -4 -7 -10 -4 -5 3 -10 1 -10 -4 0 -14 6 -14 31 0 16 8
24 6 42 -10 12 -12 31 -28 42 -36 18 -13 18 -14 3 -15 -10 0 -18 -4 -18 -9 0
-5 -6 -16 -14 -23 -11 -12 -7 -14 26 -15 63 -3 80 -11 73 -36 -5 -16 -4 -18 3
-8 7 10 11 10 17 1 4 -6 3 -16 -2 -21 -7 -7 -18 1 -33 19 -20 25 -26 28 -38
16 -7 -8 -18 -12 -23 -9 -5 4 -9 1 -9 -4 0 -6 8 -11 18 -11 10 -1 6 -6 -13
-14 -16 -7 -33 -11 -38 -9 -4 2 -14 -11 -22 -29 -8 -18 -14 -27 -15 -19 0 7 9
29 21 47 15 25 18 38 10 51 -6 11 -11 13 -11 5 0 -7 -4 -10 -10 -7 -6 3 -10
-4 -11 -17 0 -13 -4 -32 -9 -43 -6 -13 -7 -3 -4 30 3 28 12 60 19 72 12 18 12
23 -1 34 -8 6 -18 8 -22 4 -4 -4 -2 -10 5 -12 7 -2 9 -11 6 -19 -3 -7 -10 -11
-16 -7 -5 3 -7 1 -3 -5 3 -6 2 -13 -4 -17 -5 -3 -10 1 -10 10 0 10 -5 13 -12
9 -7 -5 -8 -3 -3 6 4 7 2 16 -5 20 -6 4 -13 19 -13 34 -2 20 -7 26 -24 26 -13
0 -23 4 -23 9 0 16 19 61 25 61 4 0 4 -4 0 -9z m1049 -50 c1 -23 -1 -41 -6
-41 -8 0 -9 2 -14 64 -2 28 0 36 7 29 6 -6 12 -29 13 -52z m-1683 -9 c-13 -43
-41 -93 -77 -138 -33 -39 -50 -84 -22 -56 39 39 32 -39 -7 -84 -27 -31 -59
-38 -34 -8 6 8 9 17 5 21 -3 3 -6 1 -6 -5 0 -7 -11 -11 -25 -10 -23 2 -24 5
-20 52 6 68 32 137 61 159 14 10 24 13 24 7 0 -7 22 11 48 39 27 28 51 51 55
51 3 0 2 -13 -2 -28z m593 -8 c3 -8 2 -12 -4 -9 -6 3 -10 10 -10 16 0 14 7 11
14 -7z m926 -174 c0 -31 -1 -33 -16 -18 -12 11 -14 25 -9 48 9 41 25 22 25
-30z m-1550 46 c0 -3 -4 -8 -10 -11 -5 -3 -10 -1 -10 4 0 6 5 11 10 11 6 0 10
-2 10 -4z m1500 -5 c0 -5 3 -17 6 -25 5 -12 2 -15 -12 -9 -12 4 -15 3 -10 -6
11 -17 26 -71 20 -71 -3 0 -14 20 -25 45 -20 45 -49 77 -36 39 6 -16 5 -17 -5
-4 -9 11 -28 15 -63 13 l-50 -2 40 14 c46 15 135 20 135 6z m-185 -31 c-3 -5
-12 -10 -18 -10 -7 0 -6 4 3 10 19 12 23 12 15 0z m-1134 -59 c-14 -25 -14
-44 -1 -36 6 3 10 13 10 21 0 21 27 47 35 34 3 -5 1 -10 -4 -10 -6 0 -11 -7
-11 -16 0 -10 6 -14 15 -11 23 9 26 -7 10 -53 -8 -23 -12 -47 -8 -53 3 -5 -2
-16 -12 -24 -11 -7 -14 -13 -8 -13 7 0 3 -25 -9 -67 -10 -38 -21 -77 -24 -88
-3 -11 -5 -33 -5 -49 0 -26 -2 -28 -16 -13 -26 25 -34 112 -23 240 10 112 17
143 44 176 9 12 11 12 14 -2 2 -9 -2 -25 -7 -36z m1249 39 c0 -5 -2 -10 -4
-10 -3 0 -8 5 -11 10 -3 6 -1 10 4 10 6 0 11 -4 11 -10z m324 -29 c-6 -6 -24
19 -24 34 1 6 7 1 15 -9 8 -11 12 -22 9 -25z m-237 7 c-3 -8 -6 -5 -6 6 -1 11
2 17 5 13 3 -3 4 -12 1 -19z m528 12 c-3 -5 -14 -10 -23 -9 -14 0 -13 2 3 9
27 11 27 11 20 0z m-1245 -15 c0 -8 -4 -15 -10 -15 -5 0 -7 7 -4 15 4 8 8 15
10 15 2 0 4 -7 4 -15z m673 -15 c3 -11 1 -20 -4 -20 -5 0 -9 4 -9 9 0 5 -3 17
-7 27 -4 11 -3 15 4 11 6 -4 13 -16 16 -27z m-55 -5 c-3 -3 -9 2 -12 12 -6 14
-5 15 5 6 7 -7 10 -15 7 -18z m-870 -6 c2 -12 -7 -16 -43 -16 -37 0 -45 4 -45
19 0 15 7 17 42 15 29 -2 44 -8 46 -18z m429 -11 c-3 -7 -5 -2 -5 12 0 14 2
19 5 13 2 -7 2 -19 0 -25z m-947 2 c0 -5 -5 -10 -11 -10 -5 0 -7 5 -4 10 3 6
8 10 11 10 2 0 4 -4 4 -10z m420 -29 c0 -11 -4 -23 -10 -26 -6 -4 -10 5 -10
19 0 14 5 26 10 26 6 0 10 -9 10 -19z m1045 -11 c-11 -5 -31 -8 -45 -8 -23 0
-22 1 5 8 42 11 65 11 40 0z m-538 -68 c4 -36 2 -52 -6 -52 -6 0 -11 13 -11
29 0 16 -3 44 -6 62 -5 26 -4 31 5 23 6 -6 14 -34 18 -62z m458 48 c-3 -5 -14
-10 -23 -10 -15 0 -15 2 -2 10 20 13 33 13 25 0z m-497 -65 c0 -29 0 -29 -8
-5 -4 14 -8 36 -8 50 -1 23 0 23 8 5 5 -11 8 -33 8 -50z m1105 3 c9 -10 13
-18 8 -18 -12 0 -51 49 -50 64 0 6 6 2 12 -8 7 -11 20 -28 30 -38z m-1585 -5
c-3 -13 13 -53 21 -53 3 0 15 -14 25 -31 13 -23 15 -34 7 -42 -16 -16 -14 -27
6 -27 9 0 13 -3 10 -7 -4 -3 1 -12 11 -19 9 -7 14 -16 10 -20 -12 -12 -57 48
-64 84 -7 34 -13 39 -31 21 -8 -8 -13 -5 -18 11 -5 15 -2 26 6 32 11 7 11 11
2 15 -24 9 -15 33 15 42 1 1 1 -2 0 -6z m525 -63 c-3 -11 -7 -20 -9 -20 -2 0
-4 9 -4 20 0 11 4 20 9 20 5 0 7 -9 4 -20z m-34 -44 c-9 -8 -10 -7 -5 7 3 10
7 26 7 35 1 9 4 6 6 -7 3 -13 -1 -28 -8 -35z m372 6 c8 -21 8 -22 -16 -6 -28
18 -33 37 -9 32 9 -2 20 -13 25 -26z m-707 -62 c4 -24 3 -28 -2 -15 -14 31
-24 83 -13 65 5 -8 11 -31 15 -50z m436 -21 c0 -11 -4 -17 -10 -14 -5 3 -10
13 -10 21 0 8 5 14 10 14 6 0 10 -9 10 -21z m405 -29 c-3 -5 -11 -10 -16 -10
-6 0 -7 5 -4 10 3 6 11 10 16 10 6 0 7 -4 4 -10z m30 -90 c-3 -5 -12 -10 -18
-10 -7 0 -6 4 3 10 19 12 23 12 15 0z m578 -29 c-16 -14 -61 -29 -67 -23 -9 8
56 42 67 35 5 -3 5 -8 0 -12z m-1694 -65 c14 -8 26 -21 27 -30 2 -12 -3 -15
-24 -10 -38 9 -42 13 -42 35 0 22 6 23 39 5z m1691 -6 c-20 -13 -43 -13 -35 0
3 6 16 10 28 10 18 0 19 -2 7 -10z m84 -46 c3 -9 2 -12 -5 -9 -5 4 -21 -1 -36
-10 -18 -12 -22 -20 -14 -28 6 -6 11 -15 11 -20 0 -5 -7 -2 -15 7 -20 20 -16
37 15 58 32 21 37 21 44 2z m16 -35 c0 -5 -15 -9 -32 -9 -20 0 -28 3 -21 8 18
11 53 12 53 1z m23 -39 c3 -11 1 -20 -4 -20 -5 0 -9 5 -9 11 0 7 -10 5 -25 -5
-28 -18 -35 -20 -35 -7 0 9 44 37 61 40 4 1 9 -8 12 -19z m-623 -17 c0 -9 -3
-13 -7 -10 -3 4 -12 2 -20 -4 -9 -8 -13 -8 -13 -1 0 6 8 16 18 21 22 14 22 14
22 -6z m-50 -23 c0 -5 -5 -10 -11 -10 -5 0 -7 5 -4 10 3 6 8 10 11 10 2 0 4
-4 4 -10z m678 -19 c3 -9 0 -11 -7 -6 -7 4 -21 -1 -32 -11 -15 -14 -19 -14
-19 -3 0 35 48 51 58 20z m-603 -31 c-16 -16 -34 -30 -39 -30 -10 1 53 59 63
60 3 0 -8 -13 -24 -30z m-70 -9 c3 -5 1 -12 -5 -16 -5 -3 -10 1 -10 9 0 18 6
21 15 7z m201 -17 c-11 -8 -17 -14 -13 -14 4 0 3 -9 -3 -20 -12 -22 -55 -28
-47 -7 2 6 11 11 20 11 9 -1 13 4 11 11 -3 7 5 20 17 29 28 19 42 10 15 -10z
m484 18 c0 -13 -40 -33 -52 -26 -7 4 -2 12 13 20 28 15 39 17 39 6z m-645
-101 c-2 -32 -30 -111 -39 -111 -6 0 0 35 12 63 7 16 9 33 6 38 -3 6 0 16 6
24 9 11 9 18 -3 29 -8 8 -18 12 -21 8 -4 -3 -4 2 0 12 7 17 8 17 25 -5 10 -14
16 -36 14 -58z m205 64 c0 -9 -61 -119 -69 -125 -4 -3 -12 -25 -18 -50 -7 -33
-12 -40 -17 -28 -11 25 19 118 54 166 26 36 50 54 50 37z m450 -14 c0 -9 -41
-23 -49 -16 -3 4 28 20 47 24 1 1 2 -3 2 -8z m-739 -28 c-5 -10 -13 -27 -16
-38 -5 -13 -9 -16 -12 -7 -3 7 2 24 11 37 19 29 31 34 17 8z m169 -24 c-6 -11
-8 -23 -5 -28 7 -13 -5 -42 -16 -35 -5 2 -15 -10 -24 -28 -8 -18 -13 -24 -11
-13 15 77 15 79 -8 30 -18 -38 -24 -45 -28 -30 -5 27 18 66 56 91 17 11 30 26
28 33 -1 7 2 10 8 6 7 -4 7 -12 0 -26z m-155 -6 c-3 -16 -11 -32 -16 -37 -5
-6 -4 5 1 25 6 18 10 35 10 36 0 2 3 3 6 3 3 0 3 -12 -1 -27z m195 17 c0 -5
-5 -10 -11 -10 -5 0 -7 5 -4 10 3 6 8 10 11 10 2 0 4 -4 4 -10z m-171 -64 c-7
-14 -16 -26 -21 -26 -5 0 -1 14 7 31 20 37 31 33 14 -5z m123 -30 c7 4 8 -5 2
-27 -6 -31 -11 -58 -13 -83 -1 -6 -8 -1 -16 10 -14 18 -14 18 -10 -5 3 -19 2
-22 -7 -13 -14 14 -22 56 -9 48 10 -7 31 37 32 67 0 12 3 16 6 9 2 -6 9 -9 15
-6z m425 -2 c-3 -3 -12 -4 -19 -1 -8 3 -5 6 6 6 11 1 17 -2 13 -5z m-563 -20
c3 -8 2 -12 -4 -9 -6 3 -10 10 -10 16 0 14 7 11 14 -7z m243 -56 c-3 -8 -6 -5
-6 6 -1 11 2 17 5 13 3 -3 4 -12 1 -19z m-77 -35 c0 -9 3 -13 7 -10 3 4 12 -5
20 -20 16 -31 11 -40 -10 -18 -9 9 -20 15 -24 15 -4 0 -9 11 -11 25 -2 14 1
25 7 25 6 0 11 -7 11 -17z"/>
<path d="M1632 1989 c2 -7 10 -15 17 -17 8 -3 12 1 9 9 -2 7 -10 15 -17 17 -8
3 -12 -1 -9 -9z"/>
<path d="M1650 1951 c0 -6 5 -13 10 -16 6 -3 10 1 10 9 0 9 -4 16 -10 16 -5 0
-10 -4 -10 -9z"/>
<path d="M1541 1784 c0 -11 3 -14 6 -6 3 7 2 16 -1 19 -3 4 -6 -2 -5 -13z"/>
<path d="M1516 1733 c-6 -14 -5 -15 5 -6 7 7 10 15 7 18 -3 3 -9 -2 -12 -12z"/>
<path d="M1645 1700 c3 -5 8 -10 11 -10 2 0 4 5 4 10 0 6 -5 10 -11 10 -5 0
-7 -4 -4 -10z"/>
<path d="M1691 1644 c0 -11 3 -14 6 -6 3 7 2 16 -1 19 -3 4 -6 -2 -5 -13z"/>
<path d="M810 1881 c0 -5 5 -13 10 -16 6 -3 10 -2 10 4 0 5 -4 13 -10 16 -5 3
-10 2 -10 -4z"/>
<path d="M800 1796 c0 -2 7 -7 16 -10 8 -3 12 -2 9 4 -6 10 -25 14 -25 6z"/>
<path d="M880 1870 c0 -5 5 -10 11 -10 5 0 7 5 4 10 -3 6 -8 10 -11 10 -2 0
-4 -4 -4 -10z"/>
<path d="M1030 1589 c0 -5 5 -7 10 -4 6 3 10 8 10 11 0 2 -4 4 -10 4 -5 0 -10
-5 -10 -11z"/>
<path d="M1125 1469 c-9 -14 -2 -20 14 -10 8 6 9 11 3 15 -6 3 -14 1 -17 -5z"/>
<path d="M481 1324 c0 -11 3 -14 6 -6 3 7 2 16 -1 19 -3 4 -6 -2 -5 -13z"/>
<path d="M471 1254 c0 -11 3 -14 6 -6 3 7 2 16 -1 19 -3 4 -6 -2 -5 -13z"/>
<path d="M1907 381 c-4 -17 -3 -21 5 -13 5 5 8 16 6 23 -3 8 -7 3 -11 -10z"/>
<path d="M2000 1221 c11 -21 10 -23 -3 -18 -12 5 -18 -2 -23 -28 -3 -19 -11
-35 -17 -35 -7 0 -7 -4 1 -12 17 -17 15 -28 -5 -29 -12 0 -8 -5 12 -14 17 -8
24 -14 18 -15 -15 0 -18 -30 -3 -30 6 0 10 5 10 12 0 6 3 9 6 6 3 -4 1 -15 -5
-26 -9 -17 -7 -22 20 -31 16 -6 44 -20 62 -32 18 -12 27 -16 20 -9 -9 10 -9
17 0 33 9 15 9 21 -1 24 -19 7 17 32 46 33 20 0 132 -64 132 -75 0 -2 -26 -12
-57 -22 -32 -10 -63 -24 -70 -33 -18 -24 -7 -24 22 -1 15 11 42 23 61 27 47 9
56 24 33 53 -10 13 -19 21 -19 17 0 -3 -9 2 -19 11 -11 9 -18 20 -16 24 3 4
-2 12 -10 19 -13 11 -14 10 -9 -6 4 -10 4 -16 0 -12 -6 5 -12 38 -17 103 -3
38 1 45 29 46 24 0 24 1 7 8 -11 5 -24 6 -28 4 -4 -3 -14 0 -22 7 -7 6 -16 7
-19 2 -8 -14 -114 -6 -133 9 -15 13 -15 12 -3 -10z"/>
<path d="M2125 954 c-20 -15 -12 -17 19 -5 11 4 15 10 10 13 -5 4 -18 0 -29
-8z"/>
<path d="M1612 908 c-15 -15 -15 -33 1 -46 9 -8 12 -2 12 24 0 19 0 34 0 34
-1 0 -6 -5 -13 -12z"/>
<path d="M2181 911 c-9 -6 -10 -11 -2 -15 6 -4 21 0 33 8 21 15 21 16 3 16
-11 0 -26 -4 -34 -9z"/>
<path d="M2193 865 l-28 -25 27 13 c15 6 30 18 33 25 7 18 0 15 -32 -13z"/>
<path d="M2059 773 c-13 -16 -12 -17 4 -4 9 7 17 15 17 17 0 8 -8 3 -21 -13z"/>
<path d="M2326 734 c-3 -8 -2 -13 3 -9 5 3 12 -1 14 -7 3 -7 6 -3 6 10 1 25
-14 30 -23 6z"/>
<path d="M2367 644 c3 -7 9 -14 14 -14 14 0 10 17 -5 23 -10 4 -13 1 -9 -9z"/>
<path d="M2245 470 c3 -5 12 -10 20 -10 8 0 17 5 20 10 4 6 -5 10 -20 10 -15
0 -24 -4 -20 -10z"/>
<path d="M1620 383 c0 -6 8 -17 18 -24 16 -13 16 -13 2 6 -8 11 -16 22 -17 24
-2 2 -3 0 -3 -6z"/>
</g>
</svg>
